<?xml version="1.0" encoding="UTF-8"?>
<svg xmlns="http://www.w3.org/2000/svg" xmlns:xlink="http://www.w3.org/1999/xlink" width="300px" height="300px" viewBox="0 0 300 300" version="1.1">
<g id="surface1">
<path style="fill-rule:evenodd;fill:rgb(0%,0%,0%);fill-opacity:1;stroke-width:0.036;stroke-linecap:butt;stroke-linejoin:miter;stroke:rgb(0%,0%,0%);stroke-opacity:1;stroke-miterlimit:10;" d="M 57.312135 228.890305 C 57.312135 341.371989 131.662206 432.588947 223.354463 432.588947 C 315.034788 432.588947 389.372928 341.371989 389.372928 228.890305 C 389.372928 116.401913 315.034788 25.178248 223.354463 25.178248 C 131.65624 25.178248 57.312135 116.401913 57.312135 228.890305 Z M 57.312135 228.890305 " transform="matrix(0.654789,0,0,0.582317,0,0.0140589)"/>
<path style="fill-rule:evenodd;fill:rgb(90.980392%,80%,72.941176%);fill-opacity:1;stroke-width:0.036;stroke-linecap:butt;stroke-linejoin:miter;stroke:rgb(0%,0%,0%);stroke-opacity:1;stroke-miterlimit:10;" d="M 60.849773 229.252544 C 60.849773 339.862663 133.917227 429.570295 224.058411 429.570295 C 314.199595 429.570295 387.267048 339.862663 387.267048 229.252544 C 387.267048 118.608883 314.199595 28.887836 224.058411 28.887836 C 133.917227 28.894544 60.849773 118.608883 60.849773 229.252544 L 60.843808 229.252544 Z M 60.849773 229.252544 " transform="matrix(0.654789,0,0,0.582317,0,0.0140589)"/>
<path style="fill-rule:evenodd;fill:rgb(0%,0%,0%);fill-opacity:1;stroke-width:0.036;stroke-linecap:butt;stroke-linejoin:miter;stroke:rgb(0%,0%,0%);stroke-opacity:1;stroke-miterlimit:10;" d="M 67.280759 184.039844 C 62.538056 182.839091 57.765525 183.047043 52.843852 184.677115 C 47.832694 186.246814 41.580679 188.386703 37.6851 193.800152 C 33.64038 199.173353 29.685144 208.289682 29.446518 217.077314 C 29.172097 225.932026 32.858878 238.576824 36.420379 245.949044 C 39.922224 253.073062 43.966944 257.507127 50.672351 260.083043 C 57.377757 262.591879 65.831103 262.772998 76.366466 260.861185 Z M 67.280759 184.039844 " transform="matrix(0.654789,0,0,0.582317,0,0.0140589)"/>
<path style=" stroke:none;fill-rule:evenodd;fill:rgb(90.980392%,80%,72.941176%);fill-opacity:1;" d="M 42.136719 155.242188 C 47.097656 156.597656 50.597656 156.191406 52.792969 154.03125 C 54.929688 151.777344 55.660156 148.914062 55.066406 142.179688 C 54.394531 135.320312 50.953125 120.023438 49.015625 113.660156 C 47 107.359375 45.222656 104.335938 43.382812 104.511719 C 43.203125 106.320312 42.789062 107.644531 41.976562 108.539062 C 41.148438 109.367188 40.160156 109.351562 38.636719 109.769531 C 37.015625 110.195312 34.5625 110.265625 32.644531 111.125 C 30.667969 111.988281 28.769531 112.476562 27.109375 114.835938 C 25.410156 117.160156 23.253906 121.113281 22.78125 125.015625 C 22.265625 128.886719 23.195312 134.511719 24.125 137.820312 C 25.035156 141.085938 26.773438 142.703125 28.199219 144.5 C 29.582031 146.167969 30.90625 147.3125 32.488281 148.136719 C 34.050781 148.914062 35.910156 149.035156 37.371094 149.390625 C 38.734375 149.722656 39.980469 149.175781 40.8125 150.199219 C 41.5625 151.183594 42.078125 152.8125 42.136719 155.242188 Z M 42.136719 155.242188 "/>
<path style="fill-rule:evenodd;fill:rgb(0%,0%,0%);fill-opacity:1;stroke-width:0.036;stroke-linecap:butt;stroke-linejoin:miter;stroke:rgb(0%,0%,0%);stroke-opacity:1;stroke-miterlimit:10;" d="M 380.871856 185.368051 C 385.578765 184.16059 390.351297 184.381958 395.302798 186.01203 C 400.260265 187.581729 406.482452 189.721618 410.46155 195.128359 C 414.392923 200.50156 418.461506 209.617889 418.729961 218.412229 C 418.819446 227.19986 415.317601 239.972113 411.732237 247.310791 C 408.140907 254.428102 404.120049 258.902415 397.480265 261.41125 C 390.739065 263.906669 382.291684 264.101205 371.780184 262.189392 Z M 380.871856 185.368051 " transform="matrix(0.654789,0,0,0.582317,0,0.0140589)"/>
<path style=" stroke:none;fill-rule:evenodd;fill:rgb(90.980392%,80%,72.941176%);fill-opacity:1;" d="M 251.328125 156.015625 C 246.34375 157.402344 242.839844 156.984375 240.667969 154.824219 C 238.472656 152.550781 237.761719 149.757812 238.375 142.96875 C 238.992188 136.113281 242.429688 120.816406 244.425781 114.445312 C 246.402344 108.132812 248.203125 105.144531 250.058594 105.285156 C 250.222656 107.097656 250.632812 108.417969 251.464844 109.316406 C 252.238281 110.125 253.246094 110.160156 254.804688 110.5625 C 256.390625 110.953125 258.796875 111.054688 260.816406 111.902344 C 262.734375 112.703125 264.652344 113.285156 266.355469 115.609375 C 268.011719 117.925781 270.105469 121.886719 270.664062 125.789062 C 271.121094 129.65625 270.210938 135.269531 269.320312 138.605469 C 268.371094 141.894531 266.628906 143.460938 265.25 145.273438 C 263.800781 146.925781 262.5 148.121094 260.953125 148.929688 C 259.355469 149.722656 257.476562 149.792969 256.074219 150.160156 C 254.648438 150.480469 253.402344 149.984375 252.628906 150.984375 C 251.820312 151.976562 251.386719 153.625 251.328125 156.015625 Z M 251.328125 156.015625 "/>
<path style="fill-rule:evenodd;fill:rgb(0%,0%,0%);fill-opacity:1;stroke-width:0.036;stroke-linecap:butt;stroke-linejoin:miter;stroke:rgb(0%,0%,0%);stroke-opacity:1;stroke-miterlimit:10;" d="M 249.519865 214.119035 C 250.211882 219.371489 245.952398 224.268414 239.998665 225.053263 C 234.050898 225.838113 228.651972 222.209022 227.948024 216.963276 C 227.261972 211.697405 231.551285 206.807188 237.499052 206.029047 C 243.440853 205.237489 248.821882 208.873288 249.519865 214.119035 Z M 249.519865 214.119035 " transform="matrix(0.654789,0,0,0.582317,0,0.0140589)"/>
<path style="fill-rule:evenodd;fill:rgb(100%,100%,100%);fill-opacity:1;stroke-width:0.036;stroke-linecap:butt;stroke-linejoin:miter;stroke:rgb(0%,0%,0%);stroke-opacity:1;stroke-miterlimit:10;" d="M 240.702614 213.488472 C 240.94124 215.091711 239.789867 216.601037 238.161241 216.808989 C 236.562443 217.016941 235.047164 215.869853 234.838366 214.239781 C 234.629568 212.643249 235.780941 211.127215 237.397636 210.919263 C 239.008365 210.711312 240.481884 211.8584 240.702614 213.488472 Z M 240.702614 213.488472 " transform="matrix(0.654789,0,0,0.582317,0,0.0140589)"/>
<path style="fill-rule:evenodd;fill:rgb(0%,0%,0%);fill-opacity:1;stroke-width:0.036;stroke-linecap:butt;stroke-linejoin:miter;stroke:rgb(0%,0%,0%);stroke-opacity:1;stroke-miterlimit:10;" d="M 193.740906 210.85889 C 191.241293 215.661901 193.532108 221.819951 198.841549 224.597111 C 204.162921 227.380979 210.528285 225.737491 213.039829 220.941188 C 215.539443 216.138177 213.248628 210.00696 207.927255 207.202967 C 202.617814 204.432516 196.282279 206.062588 193.740906 210.85889 Z M 193.740906 210.85889 " transform="matrix(0.654789,0,0,0.582317,0,0.0140589)"/>
<path style="fill-rule:evenodd;fill:rgb(100%,100%,100%);fill-opacity:1;stroke-width:0.036;stroke-linecap:butt;stroke-linejoin:miter;stroke:rgb(0%,0%,0%);stroke-opacity:1;stroke-miterlimit:10;" d="M 199.450047 211.818151 C 198.692407 213.267104 199.241248 215.058171 200.690905 215.80948 C 202.140561 216.601037 203.918329 216.017431 204.699831 214.568478 C 205.45747 213.119525 204.878801 211.341875 203.441076 210.590566 C 201.979488 209.832549 200.20172 210.382614 199.450047 211.818151 Z M 199.450047 211.818151 " transform="matrix(0.654789,0,0,0.582317,0,0.0140589)"/>
<path style="fill-rule:evenodd;fill:rgb(0%,0%,0%);fill-opacity:1;stroke-width:0.036;stroke-linecap:butt;stroke-linejoin:miter;stroke:rgb(0%,0%,0%);stroke-opacity:1;stroke-miterlimit:10;" d="M 258.659262 193.77332 C 256.159649 192.196912 251.112697 189.842364 247.372226 188.661735 C 243.512441 187.340237 238.859223 186.461474 235.989739 186.401101 C 232.971113 186.280354 230.340255 187.159118 229.982315 188.091546 C 229.642272 188.997141 231.521457 191.022992 234.080726 191.841382 C 236.651928 192.471945 241.209695 191.593182 244.860681 192.471945 C 248.39832 193.377541 252.258105 195.430224 254.948619 196.879177 C 257.460164 198.120179 259.178275 200.052116 260.347545 200.233235 C 261.498919 200.2869 262.101451 198.992234 261.922481 197.838438 C 261.677888 196.731599 260.991837 195.249105 258.659262 193.77332 Z M 258.659262 193.77332 " transform="matrix(0.654789,0,0,0.582317,0,0.0140589)"/>
<path style="fill-rule:evenodd;fill:rgb(0%,0%,0%);fill-opacity:1;stroke-width:0.036;stroke-linecap:butt;stroke-linejoin:miter;stroke:rgb(0%,0%,0%);stroke-opacity:1;stroke-miterlimit:10;" d="M 185.770779 188.883103 C 188.192839 187.548188 193.168202 186.01203 196.96833 185.186932 C 200.690905 184.40879 205.189015 183.979471 208.028672 184.281336 C 210.772877 184.589909 213.338113 185.669916 213.642361 186.729798 C 213.85116 187.642102 211.8288 189.480126 209.442534 189.929569 C 206.877298 190.31864 202.528329 188.782482 199.092107 189.272174 C 195.548502 189.721618 191.718546 191.35169 189.087688 192.411572 C 186.432968 193.370833 184.768547 195.000905 183.658934 195.101527 C 182.477732 195.041154 181.95872 193.55866 182.358419 192.532318 C 182.662668 191.438895 183.289063 190.110688 185.770779 188.883103 Z M 185.770779 188.883103 " transform="matrix(0.654789,0,0,0.582317,0,0.0140589)"/>
<path style="fill-rule:evenodd;fill:rgb(0%,0%,0%);fill-opacity:1;stroke-width:0.036;stroke-linecap:butt;stroke-linejoin:miter;stroke:rgb(0%,0%,0%);stroke-opacity:1;stroke-miterlimit:10;" d="M 215.241159 373.953307 C 208.661032 373.101377 206.030174 373.383118 198.507472 370.538877 C 190.960907 367.667803 178.82078 362.83796 170.462885 357.06898 C 162.128852 351.273168 155.542759 344.900458 148.932803 336.052454 C 142.322848 327.137368 135.372849 315.042635 131.077571 304.323066 C 126.830018 293.596789 124.348302 283.118713 123.477315 272.338771 C 124.258817 270.467206 124.712207 268.407815 124.950834 265.939228 C 125.141735 263.37002 125.261048 258.540177 124.742036 257.627873 C 124.109675 256.762526 122.510877 258.151106 121.687616 260.653233 C 120.882251 263.068155 121.120877 268.622475 119.850191 272.311938 C 118.400535 275.90078 114.510922 279.798195 113.419205 282.481442 C 112.267832 285.137856 112.840536 287.438739 113.180579 288.216881 C 113.389377 288.887692 113.991909 288.579119 115.232767 286.828301 C 116.467659 285.017109 118.191736 282.119203 120.518345 277.799177 C 122.152937 288.43154 125.201392 298.96999 129.788987 309.776765 C 134.281132 320.556706 140.228899 332.879515 147.990228 342.210504 C 155.721729 351.420747 167.617263 359.396696 176.231682 364.83027 C 184.887861 370.143098 192.929576 372.02137 199.271077 374.188092 C 205.427642 376.267607 208.267298 376.7573 213.010001 377.387863 C 217.752704 377.911096 222.310471 377.911096 227.142659 377.387863 C 231.789911 376.7573 234.659396 376.267607 240.881584 374.188092 C 247.127634 372.02137 255.187246 370.143098 263.920978 364.83027 C 272.457843 359.396696 284.359343 351.420747 292.1505 342.210504 C 299.882001 332.879515 305.680627 320.556706 310.357707 309.776765 C 314.981097 298.96999 317.999723 288.43154 319.658177 277.799177 C 320.558993 280.972116 322.038477 283.118713 324.102597 284.359714 C 326.089163 285.540342 331.678991 286.291651 331.768476 285.111023 C 331.768476 283.870022 326.059335 279.918942 324.102597 277.202155 C 321.948992 274.391454 320.380023 271.822246 319.509036 268.562102 C 318.661912 265.181211 319.509036 258.687755 318.900538 257.238802 C 318.119036 255.702644 316.180195 258.332225 315.547835 259.781178 C 314.92144 261.256964 314.92144 263.732258 315.189895 265.939228 C 315.398693 268.052285 315.852084 270.09826 316.66938 272.338771 C 315.822255 283.118713 313.322642 293.596789 309.057192 304.323066 C 304.76788 315.042635 297.829813 327.137368 291.207926 336.052454 C 284.59797 344.900458 278.017842 351.273168 269.677844 357.06898 C 261.319949 362.83796 249.179822 367.667803 241.627292 370.538877 C 234.110555 373.383118 231.479697 373.101377 224.899569 373.953307 C 218.319442 374.832071 221.851115 374.832071 215.241159 373.953307 Z M 215.241159 373.953307 " transform="matrix(0.654789,0,0,0.582317,0,0.0140589)"/>
<path style="fill-rule:evenodd;fill:rgb(0%,0%,0%);fill-opacity:1;stroke-width:0.036;stroke-linecap:butt;stroke-linejoin:miter;stroke:rgb(0%,0%,0%);stroke-opacity:1;stroke-miterlimit:10;" d="M 62.597713 212.073059 C 61.0884 211.576659 59.370289 210.979636 57.437414 211.187588 C 55.409088 211.368707 52.754367 211.187588 50.970634 213.548845 C 49.133209 215.957058 46.776772 221.162556 46.687287 225.053263 C 46.53218 228.762851 48.465055 233.57257 50.517243 235.833205 C 52.545569 237.999926 56.739431 238.549992 58.916898 238.040175 C 61.058572 237.308991 62.114494 232.626726 63.355352 232.15045 C 64.50076 231.660757 66.039901 233.599403 65.860931 235.377053 C 65.646167 237.101039 64.834837 241.568644 62.025009 242.588278 C 58.976555 243.587787 51.847586 243.500581 48.465055 241.139325 C 45.052695 238.637197 42.666429 232.687099 42.248833 227.857256 C 41.795442 222.940207 43.57321 215.688734 46.078789 212.059643 C 48.524711 208.470801 53.571663 206.719983 57.013851 206.330912 C 60.485868 205.84122 64.709558 207.867071 66.433635 209.141613 C 67.853463 210.369198 66.827369 212.971947 66.159214 213.542137 C 65.467197 213.911083 64.047369 212.488962 62.597713 212.073059 Z M 62.597713 212.073059 " transform="matrix(0.654789,0,0,0.582317,0,0.0140589)"/>
<path style="fill-rule:evenodd;fill:rgb(0%,0%,0%);fill-opacity:1;stroke-width:0.036;stroke-linecap:butt;stroke-linejoin:miter;stroke:rgb(0%,0%,0%);stroke-opacity:1;stroke-miterlimit:10;" d="M 162.307822 17.269379 C 160.249668 14.069608 156.932759 12.768234 152.011086 13.251218 C 147.029756 13.734202 142.650959 13.794575 133.052206 20.288031 C 123.292379 26.781487 107.560923 38.138327 94.579638 51.903381 C 81.532731 65.614769 65.860931 84.820104 55.594023 102.059962 C 45.237631 119.272987 38.681366 139.471123 33.371925 154.269226 C 28.056518 168.859378 24.942441 179.941185 24.160939 189.39292 C 23.313815 198.811115 24.763472 205.720474 28.509909 210.46982 C 24.280253 212.039519 21.685189 213.998289 20.384674 216.480291 C 19.143816 218.922045 19.448065 222.853001 20.92755 224.99289 C 22.317549 226.95166 24.733643 228.132288 28.509909 228.521359 C 27.26905 237.610856 25.395832 248.330425 22.556176 261.142926 C 19.597206 273.94201 15.128924 285.258602 11.716564 304.77251 C 8.274376 324.279711 3.537639 353.017278 2.505579 377.032333 C 1.574935 400.980306 5.947767 427.430406 5.738969 447.299845 C 5.225922 466.981456 0.668154 483.288885 0.334077 494.578644 C 0 505.848278 -1.055923 512.220988 4.140171 514.152926 C 9.330299 515.836663 18.362314 516.601388 31.224286 505.117094 C 44.086257 493.411432 67.191274 467.6791 80.506637 445.388032 C 93.672857 422.989633 108.587017 398.860541 109.768219 372.651933 C 110.639206 346.382952 92.312686 314.861516 86.454404 289.370677 C 80.566293 263.94021 76.974963 241.508271 75.101745 221.129015 C 79.480542 218.828132 82.254576 216.359545 83.769855 213.461639 C 85.153889 210.530193 85.279168 206.270539 83.769855 203.942823 C 82.165091 201.588274 79.206122 200.078948 74.558869 199.421553 C 90.803373 188.333038 104.327533 176.6475 115.721951 163.781334 C 127.038816 150.76759 133.982849 143.187419 142.257225 122.660585 C 150.471945 102.033129 157.690398 75.368369 164.479324 41.364931 C 170.098979 59.785417 180.520995 76.756949 196.431421 93.547363 C 212.28219 110.210322 227.709397 122.291639 259.26776 140.712124 C 291.040887 159.159443 332.221866 179.518574 384.952371 203.037227 C 379.452028 204.580094 375.950184 206.512031 374.112759 209.08124 C 372.257438 211.67728 372.412545 215.541155 374.112759 218.110363 C 375.771214 220.518577 378.909153 222.363309 383.860654 223.631143 C 383.979967 234.109219 381.199968 247.760235 375.192544 265.268417 C 369.030013 282.850388 351.729587 305.617733 348.108429 327.989299 C 344.540962 350.280367 346.837743 375.160768 354.062162 397.740286 C 361.238856 420.272846 376.158982 443.308516 390.888206 461.970494 C 405.659191 480.538558 430.392834 500.93123 441.811115 508.108913 C 452.94901 515.031689 456.838623 516.051322 458.049652 503.607768 C 459.141369 490.96297 450.592572 463.419447 448.838667 433.346964 C 447.120556 402.999448 449.721585 350.817016 447.782745 323.977845 C 445.641071 297.313086 440.081072 291.510565 436.937167 274.297541 C 433.799228 256.99731 431.3891 239.549501 429.360774 221.129015 C 433.650086 218.499434 436.251116 215.688734 437.491974 212.46213 C 438.631416 209.108072 438.148197 204.157483 436.400258 201.916972 C 434.527039 199.750251 431.3891 198.871488 426.652362 199.408137 C 430.571804 185.012521 428.698585 167.799496 420.69863 146.722596 C 412.66288 125.578615 402.909019 96.445269 378.96881 73.979789 C 354.688557 51.480769 308.669424 25.178248 277.14089 12.768234 C 245.558664 0.418593 210.89219 -0.547376 191.539576 0.210641 C 172.270481 1.022323 162.761213 6.54981 162.307822 17.269379 Z M 162.307822 17.269379 " transform="matrix(0.654789,0,0,0.582317,0,0.0140589)"/>
<path style="fill-rule:evenodd;fill:rgb(100%,71.372549%,0%);fill-opacity:1;stroke-width:0.036;stroke-linecap:butt;stroke-linejoin:miter;stroke:rgb(0%,0%,0%);stroke-opacity:1;stroke-miterlimit:10;" d="M 43.668661 135.701162 C 39.70746 144.971778 36.420379 154.812584 33.9148 162.788533 C 31.283942 170.637029 29.446518 176.707873 28.509909 182.872632 C 27.573299 189.057514 27.44802 195.007613 28.509909 199.408137 C 29.536003 203.66779 30.198191 207.26334 34.457676 208.437261 C 38.71716 209.591056 45.267459 208.987326 53.422522 205.941842 C 61.511962 202.621324 72.053291 196.93955 82.135263 189.39292 C 92.038265 181.812749 103.701138 171.120013 112.452768 161.279207 C 121.031393 151.431693 127.217786 142.831889 133.589115 130.6902 C 139.930616 118.340559 146.027525 102.301454 150.38246 88.536401 C 154.612116 74.670725 157.26087 59.906163 159.05057 48.884729 C 160.738853 37.863294 161.979711 28.565846 160.679196 23.306683 C 159.319024 18.054229 156.300398 17.148633 150.919369 17.785904 C 145.460787 18.295721 138.421303 19.174484 128.190189 26.815028 C 117.738346 34.482404 101.040452 49.91107 89.174746 63.44134 C 77.183762 76.938068 64.864665 94.87557 57.22265 107.097757 C 49.616428 119.239446 47.498617 126.249427 43.668661 135.701162 Z M 43.668661 135.701162 " transform="matrix(0.654789,0,0,0.582317,0,0.0140589)"/>
<path style="fill-rule:evenodd;fill:rgb(0%,0%,0%);fill-opacity:1;stroke-width:0.036;stroke-linecap:butt;stroke-linejoin:miter;stroke:rgb(0%,0%,0%);stroke-opacity:1;stroke-miterlimit:10;" d="M 143.342976 31.309465 C 135.802377 37.561429 117.189505 54.231097 104.327533 70.478153 C 91.435733 86.658128 77.183762 108.949197 66.946682 127.671548 C 56.709603 146.326817 47.862523 169.818638 43.668661 181.363306 C 39.468833 192.619524 41.521022 194.73258 42.034069 195.396684 C 42.427803 195.913209 43.185442 192.981762 46.383038 184.858234 C 49.526943 176.560295 53.81029 160.997466 60.998915 146.722596 C 68.247197 132.286731 79.933933 113.141769 89.174746 99.551126 C 98.260453 85.967192 106.928563 75.18725 115.167145 65.943467 C 123.292379 56.706391 131.751691 49.790324 137.401175 44.383583 C 142.979071 38.923177 147.089413 35.508746 148.210958 33.335316 C 149.141602 31.067973 150.621086 25.117875 143.342976 31.309465 Z M 143.342976 31.309465 " transform="matrix(0.654789,0,0,0.582317,0,0.0140589)"/>
<path style="fill-rule:evenodd;fill:rgb(0%,0%,0%);fill-opacity:1;stroke-width:0.036;stroke-linecap:butt;stroke-linejoin:miter;stroke:rgb(0%,0%,0%);stroke-opacity:1;stroke-miterlimit:10;" d="M 136.852334 58.423669 C 131.662206 64.165816 121.842723 77.327139 114.630235 91.038528 C 107.352125 104.749916 102.967362 123.378353 94.030797 139.719323 C 84.945091 155.932839 66.463463 179.028881 61.54179 187.367069 C 56.769259 195.457057 60.605181 193.498287 65.347884 188.35987 C 69.965308 182.98667 82.379855 166.498121 89.168781 156.261537 C 95.874187 146.03166 100.712341 138.089251 105.41925 127.671548 C 110.012811 117.133098 111.122424 104.957868 116.801737 94.05718 C 122.510877 83.129659 134.102162 69.176779 138.999973 62.924815 C 143.677053 56.646018 145.281817 57.67236 144.971602 56.914343 C 144.54804 56.042288 141.958942 52.782144 136.852334 58.423669 Z M 136.852334 58.423669 " transform="matrix(0.654789,0,0,0.582317,0,0.0140589)"/>
<path style="fill-rule:evenodd;fill:rgb(0%,0%,0%);fill-opacity:1;stroke-width:0.036;stroke-linecap:butt;stroke-linejoin:miter;stroke:rgb(0%,0%,0%);stroke-opacity:1;stroke-miterlimit:10;" d="M 151.468211 71.953938 C 150.949198 76.455084 147.119241 91.192814 144.977568 97.048999 C 142.770272 102.757606 138.8389 106.62148 138.451132 106.078123 C 137.938084 105.320106 140.688256 98.954104 142.257225 93.030838 C 143.861989 86.993534 145.967868 74.040162 147.662117 70.478153 C 149.141602 66.909435 151.891773 67.513166 151.468211 71.953938 Z M 151.468211 71.953938 " transform="matrix(0.654789,0,0,0.582317,0,0.0140589)"/>
<path style="fill-rule:evenodd;fill:rgb(0%,0%,0%);fill-opacity:1;stroke-width:0.036;stroke-linecap:butt;stroke-linejoin:miter;stroke:rgb(0%,0%,0%);stroke-opacity:1;stroke-miterlimit:10;" d="M 98.922641 162.030516 C 98.922641 163.566675 99.924873 164.780844 101.159766 164.780844 C 102.400624 164.780844 103.390924 163.566675 103.390924 162.030516 C 103.390924 160.52119 102.400624 159.280189 101.159766 159.280189 C 99.924873 159.280189 98.922641 160.52119 98.922641 162.030516 Z M 98.922641 162.030516 " transform="matrix(0.654789,0,0,0.582317,0,0.0140589)"/>
<path style="fill-rule:evenodd;fill:rgb(0%,0%,0%);fill-opacity:1;stroke-width:0.036;stroke-linecap:butt;stroke-linejoin:miter;stroke:rgb(0%,0%,0%);stroke-opacity:1;stroke-miterlimit:10;" d="M 96.75114 168.799005 C 95.695217 171.09318 92.223201 175.587618 89.717622 178.337945 C 87.027107 180.927278 82.379855 184.469163 81.592387 184.381958 C 80.840714 184.100217 82.952559 180.632121 85.368653 177.338436 C 87.754918 173.897173 93.672857 166.29017 95.665389 164.780844 C 97.508779 163.29835 97.717577 166.498121 96.75114 168.799005 Z M 96.75114 168.799005 " transform="matrix(0.654789,0,0,0.582317,0,0.0140589)"/>
<path style="fill-rule:evenodd;fill:rgb(100%,50.196078%,76.078431%);fill-opacity:1;stroke-width:0.036;stroke-linecap:butt;stroke-linejoin:miter;stroke:rgb(0%,0%,0%);stroke-opacity:1;stroke-miterlimit:10;" d="M 29.052784 213.461639 C 25.938707 213.428099 23.946176 214.300154 23.069223 215.957058 C 22.132614 217.58713 21.923815 221.699205 23.612098 223.510397 C 25.216862 225.261215 27.782098 226.260724 32.823084 226.502216 C 37.804413 226.710168 46.53218 226.562589 53.416556 224.99289 C 60.300932 223.268904 68.849729 219.827641 73.467153 216.990108 C 77.965264 214.119035 80.172559 211.040009 79.963761 208.437261 C 79.540199 205.847928 76.760199 203.459839 71.295651 201.407155 C 65.222605 205.478982 58.910933 208.376888 51.78793 210.46982 C 44.629133 212.428589 37.201881 213.421391 29.052784 213.461639 Z M 29.052784 213.461639 " transform="matrix(0.654789,0,0,0.582317,0,0.0140589)"/>
<path style="fill-rule:evenodd;fill:rgb(0%,0%,0%);fill-opacity:1;stroke-width:0.036;stroke-linecap:butt;stroke-linejoin:miter;stroke:rgb(0%,0%,0%);stroke-opacity:1;stroke-miterlimit:10;" d="M 40.948318 223.00058 C 42.791708 223.362818 45.720849 223.268904 49.616428 222.477347 C 53.386728 221.638832 61.392649 219.800809 63.719258 218.472602 C 65.860931 217.110854 65.013807 214.4209 63.176382 214.481273 C 61.273336 214.4209 56.984023 217.526757 52.879646 218.472602 C 48.709647 219.311116 40.799177 219.19037 38.806645 219.981928 C 36.843941 220.733237 39.0751 222.510887 40.948318 223.00058 Z M 40.948318 223.00058 " transform="matrix(0.654789,0,0,0.582317,0,0.0140589)"/>
<path style="fill-rule:evenodd;fill:rgb(0%,0%,0%);fill-opacity:1;stroke-width:0.036;stroke-linecap:butt;stroke-linejoin:miter;stroke:rgb(0%,0%,0%);stroke-opacity:1;stroke-miterlimit:10;" d="M 66.946682 213.206731 C 66.946682 214.722765 67.972776 215.957058 69.213634 215.957058 C 70.418699 215.957058 71.414964 214.722765 71.414964 213.206731 C 71.414964 211.697405 70.418699 210.46982 69.213634 210.46982 C 67.972776 210.46982 66.946682 211.697405 66.946682 213.206731 Z M 66.946682 213.206731 " transform="matrix(0.654789,0,0,0.582317,0,0.0140589)"/>
<path style="fill-rule:evenodd;fill:rgb(100%,71.372549%,0%);fill-opacity:1;stroke-width:0.036;stroke-linecap:butt;stroke-linejoin:miter;stroke:rgb(0%,0%,0%);stroke-opacity:1;stroke-miterlimit:10;" d="M 396.841939 203.942823 C 382.440826 198.240925 365.200057 190.56684 344.302336 180.357088 C 323.249507 170.086963 294.662045 156.482904 272.249045 143.22096 C 249.782354 129.777896 226.349226 114.409603 211.041332 101.060453 C 195.697644 87.71801 188.87889 75.307996 181.272668 63.951156 C 173.690309 52.446738 167.77237 42.122948 166.078122 33.335316 C 164.330182 24.547685 165.839495 16.424157 170.969966 11.741892 C 176.08254 6.972422 183.199578 5.610674 196.431421 5.221603 C 209.621504 4.738619 230.972616 4.678246 249.507934 9.239765 C 267.959733 13.854948 287.771703 23.46097 306.372644 32.818791 C 324.93779 42.243694 345.96079 54.774454 359.997998 64.950666 C 373.862201 74.912218 381.438594 83.190032 389.25958 92.547854 C 397.020909 101.85201 401.220737 110.941507 406.052924 120.628026 C 410.730005 130.301129 414.571893 136.908623 417.441377 150.257773 C 420.269102 163.627048 421.957385 179.880812 422.840303 199.93137 C 419.94099 202.218837 416.379489 203.761704 412.03052 204.432516 C 407.621894 205.063078 402.670393 204.942332 396.841939 203.942823 Z M 396.841939 203.942823 " transform="matrix(0.654789,0,0,0.582317,0,0.0140589)"/>
<path style="fill-rule:evenodd;fill:rgb(0%,0%,0%);fill-opacity:1;stroke-width:0.036;stroke-linecap:butt;stroke-linejoin:miter;stroke:rgb(0%,0%,0%);stroke-opacity:1;stroke-miterlimit:10;" d="M 196.431421 18.778705 C 208.810174 20.348404 238.608666 22.374255 260.902352 31.82599 C 283.178142 41.244185 308.162343 58.577956 328.600708 74.972591 C 348.889931 91.400766 368.367825 111.182999 381.677221 129.180874 C 394.819579 147.138499 403.147646 171.602997 407.138675 181.363306 C 410.908975 190.687586 408.158804 191.680388 404.961208 185.857743 C 401.668161 179.941185 396.120094 160.098579 388.179795 146.722596 C 380.257393 133.2527 372.287266 120.748772 357.86229 106.078123 C 343.270276 91.306852 318.632083 71.55816 301.510627 59.423178 C 284.329515 47.254656 269.838917 39.734859 255.461666 33.845133 C 240.911412 27.895035 226.778754 26.23813 215.390301 24.306193 C 203.977986 22.401088 190.960907 23.125564 187.757345 22.280342 C 184.529921 21.287541 184.201809 17.209006 196.431421 18.778705 Z M 196.431421 18.778705 " transform="matrix(0.654789,0,0,0.582317,0,0.0140589)"/>
<path style="fill-rule:evenodd;fill:rgb(0%,0%,0%);fill-opacity:1;stroke-width:0.036;stroke-linecap:butt;stroke-linejoin:miter;stroke:rgb(0%,0%,0%);stroke-opacity:1;stroke-miterlimit:10;" d="M 185.042968 36.836953 C 190.662623 44.021345 206.179316 64.890293 221.338068 79.507277 C 236.377507 94.05718 251.959822 108.727829 274.969388 123.646678 C 298.038611 138.391116 339.321006 157.831236 358.3992 167.799496 C 377.238767 177.640301 380.901685 178.156826 387.630954 182.872632 C 394.217047 187.548188 395.237175 193.397665 397.92769 195.913209 C 400.528719 198.361671 404.000736 199.71671 403.332582 197.422535 C 402.491423 195.007613 399.287861 186.427933 393.608549 181.839582 C 387.959065 177.21769 386.151469 178.217199 369.757824 169.818638 C 353.119587 161.218834 316.639551 144.488794 295.019985 131.173184 C 273.37059 117.790493 258.689091 106.379988 240.851755 90.528711 C 222.847381 74.523147 197.731935 45.986823 188.312152 36.836953 C 178.952025 27.807829 179.488935 29.712934 185.042968 36.836953 Z M 185.042968 36.836953 " transform="matrix(0.654789,0,0,0.582317,0,0.0140589)"/>
<path style="fill-rule:evenodd;fill:rgb(0%,0%,0%);fill-opacity:1;stroke-width:0.036;stroke-linecap:butt;stroke-linejoin:miter;stroke:rgb(0%,0%,0%);stroke-opacity:1;stroke-miterlimit:10;" d="M 342.667744 174.319784 C 344.630447 176.097435 353.089759 181.812749 361.63259 185.857743 C 370.091901 189.74845 387.899409 196.47669 393.071639 197.898811 C 397.92769 199.139812 396.448205 196.610853 391.437047 193.887358 C 386.282714 191.110198 370.241043 184.918607 363.261216 181.839582 C 356.382805 178.727016 353.632634 176.560295 350.250103 175.319293 C 346.658773 174.051459 340.830319 172.508593 342.667744 174.319784 Z M 342.667744 174.319784 " transform="matrix(0.654789,0,0,0.582317,0,0.0140589)"/>
<path style="fill-rule:evenodd;fill:rgb(0%,0%,0%);fill-opacity:1;stroke-width:0.036;stroke-linecap:butt;stroke-linejoin:miter;stroke:rgb(0%,0%,0%);stroke-opacity:1;stroke-miterlimit:10;" d="M 334.548475 170.576656 C 334.548475 172.09269 335.538775 173.320275 336.779633 173.320275 C 338.020491 173.320275 339.022723 172.09269 339.022723 170.576656 C 339.022723 169.040497 338.020491 167.799496 336.779633 167.799496 C 335.538775 167.799496 334.548475 169.040497 334.548475 170.576656 Z M 334.548475 170.576656 " transform="matrix(0.654789,0,0,0.582317,0,0.0140589)"/>
<path style="fill-rule:evenodd;fill:rgb(100%,50.196078%,76.078431%);fill-opacity:1;stroke-width:0.036;stroke-linecap:butt;stroke-linejoin:miter;stroke:rgb(0%,0%,0%);stroke-opacity:1;stroke-miterlimit:10;" d="M 389.408722 205.572895 C 393.190953 208.658628 397.868033 209.980127 404.030564 209.557516 C 410.127473 209.141613 417.220648 206.961475 425.679959 203.037227 C 429.82013 202.862816 432.528542 203.701331 433.829056 205.579603 C 435.129571 207.390795 435.069914 211.576659 433.292147 214.092202 C 431.329443 216.480291 429.301117 218.982418 422.452535 220.102674 C 415.377257 221.129015 399.442969 221.189389 392.099236 220.612491 C 384.821126 219.948387 381.080655 218.378688 379.117951 216.601037 C 377.089625 214.763014 378.419968 211.918773 380.197736 210.080749 C 381.957607 208.229309 384.922542 206.693151 389.408722 205.572895 Z M 389.408722 205.572895 " transform="matrix(0.654789,0,0,0.582317,0,0.0140589)"/>
<path style="fill-rule:evenodd;fill:rgb(0%,0%,0%);fill-opacity:1;stroke-width:0.036;stroke-linecap:butt;stroke-linejoin:miter;stroke:rgb(0%,0%,0%);stroke-opacity:1;stroke-miterlimit:10;" d="M 418.891033 216.62787 C 417.137128 217.473092 414.357129 218.076823 410.431722 218.439061 C 406.422796 218.707386 398.321424 218.982418 395.702497 218.318315 C 393.041811 217.499925 393.190953 214.809971 394.968721 214.326986 C 396.722626 213.877542 401.817303 215.567988 406.082753 215.447241 C 410.342237 215.118544 417.709832 212.998779 420.030475 213.179898 C 422.118458 213.401266 420.489831 215.628361 418.891033 216.62787 Z M 418.891033 216.62787 " transform="matrix(0.654789,0,0,0.582317,0,0.0140589)"/>
<path style="fill-rule:evenodd;fill:rgb(0%,0%,0%);fill-opacity:1;stroke-width:0.036;stroke-linecap:butt;stroke-linejoin:miter;stroke:rgb(0%,0%,0%);stroke-opacity:1;stroke-miterlimit:10;" d="M 390.947863 214.152575 C 391.437047 215.601528 390.82855 217.050481 389.65928 217.379179 C 388.478078 217.707876 387.147735 216.782157 386.670482 215.333204 C 386.211126 213.85071 386.789795 212.401757 387.959065 212.099892 C 389.140267 211.757778 390.47061 212.670082 390.947863 214.152575 Z M 390.947863 214.152575 " transform="matrix(0.654789,0,0,0.582317,0,0.0140589)"/>
<path style="fill-rule:evenodd;fill:rgb(0%,0%,0%);fill-opacity:1;stroke-width:0.036;stroke-linecap:butt;stroke-linejoin:miter;stroke:rgb(0%,0%,0%);stroke-opacity:1;stroke-miterlimit:10;" d="M 274.032779 154.879665 C 277.689731 157.650117 291.822389 166.826819 301.629941 171.938403 C 311.419595 176.888992 326.548519 183.288535 331.977274 184.97898 C 337.179333 186.58222 337.931006 184.918607 333.06899 181.98716 C 327.998176 178.968508 311.628394 171.911571 302.721657 167.437257 C 293.659813 162.909279 284.87239 157.529371 279.980546 155.389482 C 275.11853 153.242885 270.381792 152.102505 274.032779 154.879665 Z M 274.032779 154.879665 " transform="matrix(0.654789,0,0,0.582317,0,0.0140589)"/>
<path style="fill-rule:evenodd;fill:rgb(0%,0%,0%);fill-opacity:1;stroke-width:0.036;stroke-linecap:butt;stroke-linejoin:miter;stroke:rgb(0%,0%,0%);stroke-opacity:1;stroke-miterlimit:10;" d="M 343.270276 187.548188 C 343.75946 188.997141 343.180791 190.452802 341.999589 190.7815 C 340.800491 191.110198 339.470148 190.171062 339.022723 188.722109 C 338.527573 187.279864 339.112208 185.830911 340.281478 185.488797 C 341.46268 185.160099 342.822851 186.099235 343.270276 187.548188 Z M 343.270276 187.548188 " transform="matrix(0.654789,0,0,0.582317,0,0.0140589)"/>
<path style="fill-rule:evenodd;fill:rgb(0%,0%,0%);fill-opacity:1;stroke-width:0.036;stroke-linecap:butt;stroke-linejoin:miter;stroke:rgb(0%,0%,0%);stroke-opacity:1;stroke-miterlimit:10;" d="M 189.881121 94.271839 C 191.360606 96.592847 199.330733 105.051781 204.127127 109.727338 C 208.86983 114.201651 215.509614 119.762679 218.229957 121.272005 C 220.920472 122.620336 221.731802 120.567653 220.09721 118.608883 C 218.408927 116.58974 212.007769 113.691834 207.992878 109.908457 C 203.769187 106.051291 198.5373 98.82665 195.459017 96.170236 C 192.350906 93.513822 188.431465 91.944123 189.881121 94.271839 Z M 189.881121 94.271839 " transform="matrix(0.654789,0,0,0.582317,0,0.0140589)"/>
<path style="fill-rule:evenodd;fill:rgb(0%,0%,0%);fill-opacity:1;stroke-width:0.036;stroke-linecap:butt;stroke-linejoin:miter;stroke:rgb(0%,0%,0%);stroke-opacity:1;stroke-miterlimit:10;" d="M 187.250264 88.683979 C 187.608203 89.770694 187.190607 90.857409 186.27786 91.098901 C 185.412839 91.340393 184.380779 90.676289 184.052668 89.562742 C 183.688762 88.476027 184.112324 87.389313 185.019105 87.141112 C 185.890092 86.872788 186.922152 87.563724 187.250264 88.683979 Z M 187.250264 88.683979 " transform="matrix(0.654789,0,0,0.582317,0,0.0140589)"/>
<path style="fill-rule:evenodd;fill:rgb(0%,0%,0%);fill-opacity:1;stroke-width:0.036;stroke-linecap:butt;stroke-linejoin:miter;stroke:rgb(0%,0%,0%);stroke-opacity:1;stroke-miterlimit:10;" d="M 183.479964 82.646675 C 183.808075 83.760222 183.378548 84.846937 182.507561 85.088429 C 181.60078 85.329921 180.610479 84.638985 180.240608 83.552271 C 179.882668 82.432015 180.330093 81.3453 181.207046 81.103808 C 182.119793 80.862316 183.110093 81.55996 183.479964 82.646675 Z M 183.479964 82.646675 " transform="matrix(0.654789,0,0,0.582317,0,0.0140589)"/>
<path style="fill-rule:evenodd;fill:rgb(100%,71.372549%,0%);fill-opacity:1;stroke-width:0.036;stroke-linecap:butt;stroke-linejoin:miter;stroke:rgb(0%,0%,0%);stroke-opacity:1;stroke-miterlimit:10;" d="M 389.408722 224.99289 C 397.301295 225.288047 404.179706 225.288047 410.521207 224.99289 C 416.832879 224.630652 422.058801 223.95984 426.771676 223.00058 C 427.911118 243.353003 429.730645 260.472114 432.20043 275.183012 C 434.711975 289.732915 439.180257 295.501894 441.411415 310.299998 C 443.529226 325.212139 444.10193 347.53004 444.63884 363.502063 C 445.068367 379.259427 443.678368 389.442347 444.10193 404.629521 C 444.430041 419.816695 445.342788 439.357436 446.822273 453.820133 C 448.242101 468.162084 451.618667 481.330116 452.758108 489.92992 C 453.879653 498.301648 455.269653 502.366766 453.312915 504.493239 C 451.141413 506.572755 447.389011 507.149653 440.319699 502.467388 C 433.137039 497.570464 421.062535 486.461824 411.058117 475.889834 C 400.98211 465.291011 390.017219 453.820133 380.752543 439.256814 C 371.422245 424.5325 360.427526 406.501085 355.810102 388.570292 C 351.12109 370.538877 351.550618 348.039856 353.119587 332.369698 C 354.658729 316.639167 360.761603 305.711646 365.009156 295.260402 C 369.149327 284.782325 374.339454 278.859059 378.0322 270.172049 C 381.707049 261.37771 384.642156 250.597768 386.70031 243.07797 C 388.567563 235.497799 389.48031 229.547701 389.408722 224.99289 Z M 389.408722 224.99289 " transform="matrix(0.654789,0,0,0.582317,0,0.0140589)"/>
<path style="fill-rule:evenodd;fill:rgb(0%,0%,0%);fill-opacity:1;stroke-width:0.036;stroke-linecap:butt;stroke-linejoin:miter;stroke:rgb(0%,0%,0%);stroke-opacity:1;stroke-miterlimit:10;" d="M 396.448205 242.051628 C 394.938892 247.968186 394.342326 262.652252 391.00752 276.169105 C 387.541469 289.551796 378.718252 305.738479 375.860699 321.831248 C 372.931558 337.769731 370.992717 353.90275 373.677266 371.498137 C 376.397608 389.167314 383.681684 409.278245 391.562326 426.699221 C 399.347518 443.939079 414.840348 467.531522 419.732192 474.380508 C 424.379444 481.001418 423.138586 473.870691 419.732192 466.86071 C 416.111034 459.649486 405.331079 444.60989 399.168548 432.226709 C 392.952326 419.76303 387.117907 406.709036 383.437092 393.091562 C 379.720483 379.353341 377.429668 364.099085 377.489325 350.937762 C 377.548982 337.648985 381.110483 325.842702 383.979967 314.821268 C 386.819623 303.887039 391.651811 294.502385 394.282669 285.721462 C 396.692798 276.900289 398.202111 269.467697 399.168548 262.129019 C 400.200608 254.582389 400.588376 245.009907 400.230436 241.568644 C 399.621939 238.187754 398.052969 236.249108 396.448205 242.051628 Z M 396.448205 242.051628 " transform="matrix(0.654789,0,0,0.582317,0,0.0140589)"/>
<path style="fill-rule:evenodd;fill:rgb(0%,0%,0%);fill-opacity:1;stroke-width:0.036;stroke-linecap:butt;stroke-linejoin:miter;stroke:rgb(0%,0%,0%);stroke-opacity:1;stroke-miterlimit:10;" d="M 411.058117 232.53952 C 410.097645 239.583042 411.67258 261.76678 410.521207 280.697083 C 409.190864 299.546888 401.638333 323.816851 403.481723 344.927291 C 405.360907 365.916985 417.262407 385.397353 421.360818 406.138847 C 425.381676 426.819967 425.500989 457.10711 427.308585 468.343204 C 428.96704 479.35793 431.359271 479.847622 431.657555 472.361365 C 431.812662 464.660448 430.780602 437.210839 428.937212 423.197585 C 427.069959 409.130666 424.319788 402.060312 420.817943 389.080108 C 417.131163 376.032823 409.501078 360.476703 407.800864 345.9268 C 406.202066 331.309816 409.859018 312.949703 411.058117 302.256967 C 412.120005 291.537398 413.360863 292.778399 414.3273 282.219825 C 415.287772 271.520381 416.862708 247.397997 416.468974 239.059809 C 415.842579 230.667956 412.090176 225.616745 411.058117 232.53952 Z M 411.058117 232.53952 " transform="matrix(0.654789,0,0,0.582317,0,0.0140589)"/>
<path style="fill-rule:evenodd;fill:rgb(0%,0%,0%);fill-opacity:1;stroke-width:0.036;stroke-linecap:butt;stroke-linejoin:miter;stroke:rgb(0%,0%,0%);stroke-opacity:1;stroke-miterlimit:10;" d="M 360.701946 392.09876 C 361.662418 396.599906 365.951731 408.131157 369.358125 415.16797 C 372.657137 422.016956 377.942715 430.717383 380.197736 433.21951 C 382.410998 435.580766 383.979967 434.373306 382.351341 429.717873 C 380.597436 425.008776 372.961386 412.511557 369.912932 405.622322 C 366.769027 398.652589 365.438683 390.830927 363.92937 388.556875 C 362.300744 386.269408 359.819028 387.597615 360.701946 392.09876 Z M 360.701946 392.09876 " transform="matrix(0.654789,0,0,0.582317,0,0.0140589)"/>
<path style="fill-rule:evenodd;fill:rgb(0%,0%,0%);fill-opacity:1;stroke-width:0.036;stroke-linecap:butt;stroke-linejoin:miter;stroke:rgb(0%,0%,0%);stroke-opacity:1;stroke-miterlimit:10;" d="M 361.149371 380.232104 C 361.63259 381.681057 361.059886 383.13001 359.878685 383.458707 C 358.667655 383.787405 357.337312 382.861685 356.889887 381.412732 C 356.412634 379.930239 356.979372 378.481286 358.160573 378.17942 C 359.341775 377.837306 360.701946 378.74961 361.149371 380.232104 Z M 361.149371 380.232104 " transform="matrix(0.654789,0,0,0.582317,0,0.0140589)"/>
<path style="fill-rule:evenodd;fill:rgb(100%,71.372549%,0%);fill-opacity:1;stroke-width:0.036;stroke-linecap:butt;stroke-linejoin:miter;stroke:rgb(0%,0%,0%);stroke-opacity:1;stroke-miterlimit:10;" d="M 32.978191 229.011051 C 40.948318 229.970312 48.01763 229.970312 54.627586 229.011051 C 61.213679 227.978002 66.797541 226.019232 71.963806 223.00058 C 74.344106 245.64047 77.488011 265.691028 81.711701 284.198719 C 85.911528 302.619205 92.646763 319.778565 96.900281 332.879515 C 101.040452 345.9268 105.962125 350.971303 106.660108 361.992737 C 107.26264 372.920258 105.687705 384.337471 100.682512 398.109232 C 95.420797 411.820621 85.279168 429.483089 76.306809 443.757959 C 67.310588 458.019413 56.500804 472.421738 47.588102 482.899815 C 38.532224 493.317518 30.019222 500.917813 23.22433 505.479332 C 16.399611 509.799359 10.660642 511.952664 7.522702 509.141963 C 4.408626 506.210517 4.468282 496.939901 4.80236 488.54134 C 5.046952 480.122655 8.548797 471.147196 9.151329 458.951842 C 9.634547 446.602201 8.578625 429.992906 8.065578 415.288716 C 7.492874 400.517446 4.742703 388.831908 5.88811 371.142607 C 7.039484 353.258771 11.32283 326.902584 14.55622 309.421234 C 17.604675 292.000258 21.166176 280.697083 24.310081 267.260727 C 27.418192 253.676793 30.198191 241.239946 32.978191 229.011051 Z M 32.978191 229.011051 " transform="matrix(0.654789,0,0,0.582317,0,0.0140589)"/>
<path style="fill-rule:evenodd;fill:rgb(0%,0%,0%);fill-opacity:1;stroke-width:0.036;stroke-linecap:butt;stroke-linejoin:miter;stroke:rgb(0%,0%,0%);stroke-opacity:1;stroke-miterlimit:10;" d="M 38.383083 237.161412 C 36.659006 247.820608 35.453942 281.401435 32.435316 301.901437 C 29.291411 322.220319 23.099051 338.292964 20.503987 358.611847 C 17.96858 378.957562 17.121456 404.569148 17.276563 422.842055 C 17.395876 440.79968 21.410768 454.182371 21.046863 466.471639 C 20.503987 478.727367 15.039439 491.600241 14.55622 496.08797 C 14.073002 500.381164 16.727722 496.222132 18.332486 492.559501 C 19.901455 488.702335 22.920081 481.303283 23.767206 473.991437 C 24.429394 466.652758 23.373472 459.857437 22.681455 449.412901 C 21.893987 438.901284 19.024503 427.87985 19.418237 411.78708 C 19.722485 395.513191 22.198236 370.089433 24.852956 353.077651 C 27.507677 336.079286 32.614285 323.07225 35.149693 310.420744 C 37.565787 297.742405 38.227975 289.189557 39.468833 277.322901 C 40.673898 265.301957 42.248833 245.949044 42.183211 239.180555 C 41.944584 232.512688 39.981881 226.589422 38.383083 237.161412 Z M 38.383083 237.161412 " transform="matrix(0.654789,0,0,0.582317,0,0.0140589)"/>
<path style="fill-rule:evenodd;fill:rgb(0%,0%,0%);fill-opacity:1;stroke-width:0.036;stroke-linecap:butt;stroke-linejoin:miter;stroke:rgb(0%,0%,0%);stroke-opacity:1;stroke-miterlimit:10;" d="M 56.799088 237.671229 C 55.110805 246.277741 50.910977 271.547213 52.485912 287.861351 C 54.025054 304.081574 62.842305 320.167636 66.010073 334.509587 C 69.118184 348.757625 72.775136 358.336814 70.901917 373.128209 C 68.849729 387.839107 59.942993 404.777099 54.08471 422.318822 C 48.107115 439.900793 38.049005 468.577988 35.692568 477.519906 C 33.371925 486.186791 36.748491 481.571608 40.011709 474.501254 C 43.274927 467.162575 48.64999 451.458876 54.627586 434.849582 C 60.485868 418.099417 71.749042 391.877393 74.678183 375.670585 C 77.452217 359.416821 74.344106 352.212304 71.414964 338.527748 C 68.306854 324.849901 59.125697 307.851535 56.799088 294.381639 C 54.508273 280.817829 56.924366 267.958371 57.890804 258.238312 C 58.827413 248.451171 62.29943 240.180064 62.239773 236.67172 C 61.995181 233.230456 58.403851 229.071424 56.799088 237.671229 Z M 56.799088 237.671229 " transform="matrix(0.654789,0,0,0.582317,0,0.0140589)"/>
<path style="fill-rule:evenodd;fill:rgb(0%,0%,0%);fill-opacity:1;stroke-width:0.036;stroke-linecap:butt;stroke-linejoin:miter;stroke:rgb(0%,0%,0%);stroke-opacity:1;stroke-miterlimit:10;" d="M 95.814531 392.729323 C 93.487922 395.66077 88.112858 406.58829 82.254576 416.798042 C 76.187496 426.88034 63.683464 446.689406 60.605181 452.907829 C 57.646212 458.951842 60.694666 457.95904 64.381447 453.431062 C 68.002605 448.742089 76.909341 434.883122 82.254576 425.827166 C 87.540154 416.798042 93.458093 405.233251 95.814531 399.739304 C 98.051655 394.178276 98.051655 389.831417 95.814531 392.729323 Z M 95.814531 392.729323 " transform="matrix(0.654789,0,0,0.582317,0,0.0140589)"/>
<path style="fill-rule:evenodd;fill:rgb(0%,0%,0%);fill-opacity:1;stroke-width:0.036;stroke-linecap:butt;stroke-linejoin:miter;stroke:rgb(0%,0%,0%);stroke-opacity:1;stroke-miterlimit:10;" d="M 101.159766 384.733249 C 101.60719 386.209035 101.040452 387.657988 99.859251 387.959853 C 98.684015 388.288551 97.323844 387.389663 96.870453 385.90717 C 96.387234 384.458217 96.959938 383.009264 98.170968 382.680566 C 99.346204 382.338452 100.682512 383.277588 101.159766 384.733249 Z M 101.159766 384.733249 " transform="matrix(0.654789,0,0,0.582317,0,0.0140589)"/>
<path style="fill-rule:evenodd;fill:rgb(0%,0%,0%);fill-opacity:1;stroke-width:0.036;stroke-linecap:butt;stroke-linejoin:miter;stroke:rgb(0%,0%,0%);stroke-opacity:1;stroke-miterlimit:10;" d="M 57.825182 460.997817 C 58.278572 462.44677 57.705868 463.902431 56.530633 464.237837 C 55.349431 464.573242 53.995225 463.627398 53.541835 462.178445 C 53.058616 460.729492 53.63132 459.280539 54.806556 458.951842 C 56.017586 458.623144 57.347929 459.56228 57.825182 460.997817 Z M 57.825182 460.997817 " transform="matrix(0.654789,0,0,0.582317,0,0.0140589)"/>
</g>
</svg>
